<?xml version="1.0" encoding="UTF-8"?>
<svg version="1.1" xmlns="http://www.w3.org/2000/svg" width="141" height="152">
<path d="M0 0 C4.7173676 -0.48047263 7.25918318 1.0118021 11.25 3.4375 C12.48926837 4.17719508 13.73023285 4.91405409 14.97265625 5.6484375 C15.95129639 6.22803223 15.95129639 6.22803223 16.94970703 6.81933594 C20.4696034 8.84627316 24.08234694 10.69296776 27.6875 12.5625 C45.64378059 21.96567089 45.64378059 21.96567089 49 27 C49.25396729 29.88415527 49.25396729 29.88415527 49.25878906 33.44335938 C49.2622937 34.0924678 49.26579834 34.74157623 49.26940918 35.41035461 C49.27820808 37.55492869 49.27238404 39.69917259 49.265625 41.84375 C49.26697218 43.33443261 49.26891316 44.82511479 49.27142334 46.3157959 C49.2743721 49.43957707 49.27008499 52.56324384 49.26074219 55.68701172 C49.24934772 59.692066 49.25590853 63.69685222 49.26788712 67.70189667 C49.27511245 70.77994813 49.2728147 73.857936 49.26763153 76.93598938 C49.2662969 78.41278617 49.26793626 79.88958873 49.27259064 81.36637878 C49.277667 83.42995511 49.26993046 85.49309669 49.25878906 87.55664062 C49.25719788 88.73117798 49.25560669 89.90571533 49.25396729 91.11584473 C49 94 49 94 47 97 C42.04423796 97.69591552 39.24664472 96.37152924 35.0625 93.8125 C33.84738312 93.08291896 32.63114787 92.35519871 31.4140625 91.62890625 C30.73118164 91.21785645 30.04830078 90.80680664 29.34472656 90.38330078 C26.63527388 88.78482526 23.89569355 87.24742584 21.1484375 85.71484375 C20.12484131 85.14338623 19.10124512 84.57192871 18.04663086 83.9831543 C16.00171628 82.84323686 13.95568457 81.70532074 11.90844727 80.56958008 C10.95768311 80.0361499 10.00691895 79.50271973 9.02734375 78.953125 C8.17906006 78.48036133 7.33077637 78.00759766 6.45678711 77.52050781 C3.67642873 75.79974144 1.34732754 74.29813147 -1 72 C-1.60800171 68.87496948 -1.60800171 68.87496948 -1.58349609 65.15185547 C-1.58583252 64.47173401 -1.58816895 63.79161255 -1.59057617 63.09088135 C-1.59218766 60.84886205 -1.55819861 58.60891388 -1.5234375 56.3671875 C-1.51664689 54.80828595 -1.51192541 53.24937413 -1.50918579 51.69046021 C-1.49851493 48.42696251 -1.47183356 45.16415102 -1.43212891 41.90087891 C-1.38117752 37.71308244 -1.35610626 33.52567963 -1.34119225 29.33761406 C-1.3264189 25.34741706 -1.30118858 21.35731291 -1.2734375 17.3671875 C-1.26852673 16.60347713 -1.26361595 15.83976677 -1.25855637 15.05291367 C-1.24231325 12.89829093 -1.21891035 10.74387947 -1.19287109 8.58935547 C-1.18001068 7.36231903 -1.16715027 6.13528259 -1.15390015 4.87106323 C-1 2 -1 2 0 0 Z M13 41 C9.92300532 54.84647606 13.11283802 64.59490869 19 77 C23.8228293 77 27.29158894 75.26425942 31.43359375 72.88671875 C35.70198385 68.08559198 34.91720841 62.91367164 34.61010742 56.75878906 C34.4483676 54.49904671 34.24858841 52.25163733 34 50 C30.87797994 48.49373883 27.75191601 46.99606757 24.625 45.5 C23.73554687 45.07074219 22.84609375 44.64148438 21.9296875 44.19921875 C21.07890625 43.79316406 20.228125 43.38710937 19.3515625 42.96875 C18.56604004 42.59169922 17.78051758 42.21464844 16.97119141 41.82617188 C15.0487972 40.87115169 15.0487972 40.87115169 13 41 Z " fill="#FAFAFB" transform="translate(22,40)"/>
<path d="M0 0 C7.36543968 3.53166061 7.36543968 3.53166061 8.76171875 6.32421875 C8.84830444 8.87784479 8.87734391 11.40376295 8.859375 13.95703125 C8.85796005 14.70886688 8.8565451 15.46070251 8.85508728 16.23532104 C8.8494834 18.63999385 8.83693032 21.04457402 8.82421875 23.44921875 C8.81920425 25.07812366 8.81464125 26.70703002 8.81054688 28.3359375 C8.79951272 32.33206702 8.78224554 36.32812717 8.76171875 40.32421875 C7.94477539 40.68338379 7.12783203 41.04254883 6.28613281 41.41259766 C-2.22954633 45.33728045 -2.22954633 45.33728045 -7.48828125 52.69921875 C-8.0296875 53.75882813 -8.57109375 54.8184375 -9.12890625 55.91015625 C-9.495 56.70679688 -9.86109375 57.5034375 -10.23828125 58.32421875 C-14.99609375 57.41796875 -14.99609375 57.41796875 -17.17578125 56.57421875 C-20.39762072 56.18369275 -22.49508163 57.7655826 -25.23828125 59.32421875 C-20.96534243 64.5585688 -16.42247319 68.9952869 -11.23828125 73.32421875 C-8.17395431 69.64840057 -5.60303755 65.8466231 -3.11328125 61.76171875 C-2.43007812 60.64667969 -1.746875 59.53164062 -1.04296875 58.3828125 C0.73354628 55.49034725 0.73354628 55.49034725 1.84375 52.97265625 C2.76171875 51.32421875 2.76171875 51.32421875 5.32421875 50.51171875 C6.12859375 50.44984375 6.93296875 50.38796875 7.76171875 50.32421875 C10.37195564 52.93445564 9.09409263 60.13168945 9.13671875 63.63671875 C9.19279297 65.36825195 9.19279297 65.36825195 9.25 67.13476562 C9.33840711 75.59729093 9.33840711 75.59729093 6.8125 78.78125 C5.80574219 79.29042969 4.79898438 79.79960938 3.76171875 80.32421875 C2.32809441 81.1818087 0.89737017 82.04425575 -0.53125 82.91015625 C-2.16009515 83.84450552 -3.79171987 84.77402229 -5.42578125 85.69921875 C-11.47629522 89.13441228 -17.42624257 92.6002217 -23.1328125 96.59375 C-26.2291991 97.66800658 -28.24137556 96.41671573 -31.23828125 95.32421875 C-31.41033721 89.47019769 -31.57588246 83.61601528 -31.73828125 77.76171875 C-31.77479294 76.46426224 -31.77479294 76.46426224 -31.81204224 75.14059448 C-32.12690388 63.82098262 -32.37584973 52.5154533 -32.11328125 41.19116211 C-32.04213632 36.15617596 -32.397396 32.04412783 -34.23828125 27.32421875 C-37.21293667 24.86671924 -37.21293667 24.86671924 -40.23828125 23.32421875 C-38.83686511 19.86440112 -37.48247448 18.56204744 -34.1953125 16.84375 C-33.37562988 16.40571045 -32.55594727 15.9676709 -31.71142578 15.51635742 C-30.83341309 15.06107666 -29.95540039 14.6057959 -29.05078125 14.13671875 C-21.29749555 10.04901917 -21.29749555 10.04901917 -13.7890625 5.53515625 C-13.12092529 5.10871826 -12.45278809 4.68228027 -11.7644043 4.24291992 C-10.52726145 3.44172416 -9.30009237 2.62484054 -8.08520508 1.7902832 C-4.98625755 -0.19730522 -3.66879287 -0.76562264 0 0 Z " fill="#F9FAFB" transform="translate(111.23828125,33.67578125)"/>
<path d="M0 0 C2.23828125 0.97265625 2.23828125 0.97265625 4.3125 2.0625 C5.00988281 2.42472656 5.70726562 2.78695313 6.42578125 3.16015625 C7.20501953 3.57587891 7.20501953 3.57587891 8 4 C6.68019685 7.95940944 5.12495917 8.36527342 1.53125 10.3984375 C0.40203125 11.04296875 -0.7271875 11.6875 -1.890625 12.3515625 C-3.09364868 13.02622236 -4.29677435 13.7007004 -5.5 14.375 C-6.67234486 15.04084006 -7.84422532 15.70749851 -9.015625 16.375 C-11.28881398 17.66588333 -13.5656744 18.95032616 -15.84643555 20.2277832 C-17.82478866 21.33956343 -19.79621758 22.46385509 -21.75708008 23.60620117 C-22.55525146 24.06744385 -23.35342285 24.52868652 -24.17578125 25.00390625 C-24.85809814 25.40424072 -25.54041504 25.8045752 -26.2434082 26.21704102 C-28 27 -28 27 -30.6875 26.5625 C-31.450625 26.046875 -32.21375 25.53125 -33 25 C-34.093125 24.360625 -35.18625 23.72125 -36.3125 23.0625 C-37.199375 22.381875 -38.08625 21.70125 -39 21 C-39 20.01 -39 19.02 -39 18 C-38.46745605 17.70867188 -37.93491211 17.41734375 -37.38623047 17.1171875 C-35.78974791 16.24319317 -34.19367479 15.36845073 -32.59790039 14.49316406 C-30.77502804 13.49355075 -28.95128911 12.49551616 -27.12670898 11.49902344 C-22.95496057 9.21246745 -18.80366824 6.91174938 -14.73046875 4.453125 C-14.10350098 4.07800781 -13.4765332 3.70289063 -12.83056641 3.31640625 C-11.16287441 2.31054065 -9.50492154 1.28857855 -7.84765625 0.265625 C-4.55989119 -1.19560392 -3.34988867 -1.16589262 0 0 Z " fill="#F7F8FA" transform="translate(72,14)"/>
<path d="M0 0 C3.3216243 1.25483585 5.96207234 2.95861292 8.8125 5.0625 C7.48119176 9.05642472 5.02871871 9.99960329 1.546875 11.96875 C0.91646301 12.3347229 0.28605103 12.7006958 -0.36346436 13.07775879 C-2.38335761 14.24786341 -4.41017289 15.40533226 -6.4375 16.5625 C-7.78824252 17.34161269 -9.13850896 18.12155139 -10.48828125 18.90234375 C-12.98045268 20.34309795 -15.47562071 21.77838478 -17.97363281 23.20898438 C-19.98765334 24.37051915 -21.98832235 25.55587633 -23.96777344 26.77539062 C-26.79157831 28.41277506 -27.96195573 28.66260126 -31.1875 28.0625 C-33.9753592 26.5645458 -36.58974719 24.86739029 -39.1875 23.0625 C-37.86769685 19.10309056 -36.31245917 18.69722658 -32.71875 16.6640625 C-31.58953125 16.01953125 -30.4603125 15.375 -29.296875 14.7109375 C-28.09385132 14.03627764 -26.89072565 13.3617996 -25.6875 12.6875 C-24.51515514 12.02165994 -23.34327468 11.35500149 -22.171875 10.6875 C-19.89791479 9.3961787 -17.62039897 8.11109556 -15.33911133 6.83276367 C-13.36827257 5.7257413 -11.40346039 4.60783947 -9.44799805 3.47387695 C-8.65433838 3.017146 -7.86067871 2.56041504 -7.04296875 2.08984375 C-6.36645264 1.69531006 -5.68993652 1.30077637 -4.99291992 0.89428711 C-3.1875 0.0625 -3.1875 0.0625 0 0 Z " fill="#F7F9FA" transform="translate(91.1875,22.9375)"/>
<path d="M0 0 C0.33 0 0.66 0 1 0 C1 8.58 1 17.16 1 26 C0.01 26 -0.98 26 -2 26 C-1.8604947 22.60387586 -1.71227678 19.20818542 -1.5625 15.8125 C-1.52318359 14.85279297 -1.48386719 13.89308594 -1.44335938 12.90429688 C-1.40146484 11.97294922 -1.35957031 11.04160156 -1.31640625 10.08203125 C-1.27974854 9.22843018 -1.24309082 8.3748291 -1.20532227 7.49536133 C-0.99468906 4.93545406 -0.55158464 2.50666757 0 0 Z " fill="#F1F4F9" transform="translate(70,103)"/>
<path d="M0 0 C1.32 0.66 2.64 1.32 4 2 C3.01 2 2.02 2 1 2 C1 8.93 1 15.86 1 23 C0.34 22.67 -0.32 22.34 -1 22 C-1.02887814 18.52085059 -1.04675687 15.04173169 -1.0625 11.5625 C-1.07087891 10.56927734 -1.07925781 9.57605469 -1.08789062 8.55273438 C-1.09111328 7.60849609 -1.09433594 6.66425781 -1.09765625 5.69140625 C-1.10289307 4.81685791 -1.10812988 3.94230957 -1.11352539 3.04125977 C-1 1 -1 1 0 0 Z " fill="#E7E9EC" transform="translate(34,79)"/>
<path d="M0 0 C0.66 1.32 1.32 2.64 2 4 C2.99 4 3.98 4 5 4 C4.67 4.66 4.34 5.32 4 6 C-0.85581395 5.05581395 -0.85581395 5.05581395 -2.9375 4.25 C-6.19872137 3.85470044 -8.23942195 5.37966071 -11 7 C-11.66 7.66 -12.32 8.32 -13 9 C-12.875 7.1875 -12.875 7.1875 -12 5 C-8.20160565 2.70329644 -4.22857145 1.30884354 0 0 Z " fill="#ECEFF3" transform="translate(97,86)"/>
<path d="M0 0 C0.763125 0.309375 1.52625 0.61875 2.3125 0.9375 C4.18789677 1.67893593 6.08684652 2.36228217 8 3 C8 3.66 8 4.32 8 5 C7.34 5 6.68 5 6 5 C6 5.66 6 6.32 6 7 C4.02 6.34 2.04 5.68 0 5 C0 3.35 0 1.7 0 0 Z " fill="#F2F2F4" transform="translate(94,104)"/>
<path d="M0 0 C0 1.65 0 3.3 0 5 C-1.65 5.33 -3.3 5.66 -5 6 C-5 4.33333333 -5 2.66666667 -5 1 C-3 0 -3 0 0 0 Z " fill="#F1F4F8" transform="translate(70,131)"/>
</svg>
